<svg viewBox="0 0 36 31" fill="none" xmlns="http://www.w3.org/2000/svg" id="logo">
    <rect x="0.142857" y="0.142857" width="35.7143" height="30.2857" stroke="currentColor" stroke-width="0.285714" />
    <path
        d="M3.28811 29.6085V26.2427C5.28168 26.8641 9.11349 27.1489 12.4016 27.1489C18.3564 27.1489 20.1947 26.1651 20.4018 23.2135C18.3823 23.4983 15.9227 23.6796 14.1104 23.6796C5.2299 23.6796 1.9418 21.5307 1.9418 15.9124V10.7602H6.08429V15.058C6.08429 19.0969 7.76718 20.2361 14.1104 20.2361C16.2334 20.2361 18.5895 20.1067 20.4536 19.8478V10.7602H24.5961V22.7993C24.5961 28.3917 21.3339 30.5665 12.3757 30.5665C9.6572 30.5665 5.48881 30.1781 3.28811 29.6085ZM28.7228 22.9805C28.7228 21.5824 29.7066 20.6504 31.1824 20.6504C32.6582 20.6504 33.642 21.5824 33.642 22.9805C33.642 24.3786 32.6582 25.3107 31.1824 25.3107C29.7066 25.3107 28.7228 24.3786 28.7228 22.9805Z"
        fill="currentColor" />
</svg>